<mxfile host="app.diagrams.net" agent="Mozilla/5.0 (Windows NT 10.0; Win64; x64) AppleWebKit/537.36 (KHTML, like Gecko) Chrome/130.0.0.0 Safari/537.36 Edg/130.0.0.0" version="24.8.6">
  <diagram name="PÃ¡gina-1" id="v-IhRCn82mkdFdQdKFnn">
    <mxGraphModel dx="1426" dy="747" grid="1" gridSize="10" guides="1" tooltips="1" connect="1" arrows="1" fold="1" page="1" pageScale="1" pageWidth="1169" pageHeight="827" math="0" shadow="0">
      <root>
        <mxCell id="0" />
        <mxCell id="1" parent="0" />
        <mxCell id="rwCCn9dW8YjWosBi0mnJ-2" value="" style="endArrow=cross;html=1;rounded=0;fillColor=#e51400;strokeColor=#B20000;dashed=1;strokeWidth=2;fontSize=13;align=right;fontStyle=0;endFill=0;" parent="1" edge="1">
          <mxGeometry width="50" height="50" relative="1" as="geometry">
            <mxPoint x="955" y="155.20999999999998" as="sourcePoint" />
            <mxPoint x="1011" y="155" as="targetPoint" />
          </mxGeometry>
        </mxCell>
        <mxCell id="rwCCn9dW8YjWosBi0mnJ-4" value="Return the blocked status" style="text;html=1;align=right;verticalAlign=middle;whiteSpace=wrap;rounded=0;fontSize=13;fontStyle=0" parent="1" vertex="1">
          <mxGeometry x="800" y="140" width="150" height="30" as="geometry" />
        </mxCell>
        <mxCell id="rwCCn9dW8YjWosBi0mnJ-5" value="" style="edgeStyle=orthogonalEdgeStyle;rounded=0;orthogonalLoop=1;jettySize=auto;html=1;endArrow=cross;endFill=0;fillColor=#e51400;strokeColor=#B20000;strokeWidth=2;fontSize=13;align=right;fontStyle=0" parent="1" edge="1">
          <mxGeometry relative="1" as="geometry">
            <mxPoint x="955" y="185" as="sourcePoint" />
            <mxPoint x="1011" y="185" as="targetPoint" />
          </mxGeometry>
        </mxCell>
        <mxCell id="rwCCn9dW8YjWosBi0mnJ-6" value="" style="edgeStyle=orthogonalEdgeStyle;rounded=0;orthogonalLoop=1;jettySize=auto;html=1;endArrow=block;endFill=1;fillColor=#d5e8d4;strokeColor=#82b366;strokeWidth=2;fontSize=13;align=right;fontStyle=0" parent="1" edge="1">
          <mxGeometry relative="1" as="geometry">
            <mxPoint x="955" y="215" as="sourcePoint" />
            <mxPoint x="1011" y="215" as="targetPoint" />
          </mxGeometry>
        </mxCell>
        <mxCell id="rwCCn9dW8YjWosBi0mnJ-7" value="" style="edgeStyle=orthogonalEdgeStyle;rounded=0;orthogonalLoop=1;jettySize=auto;html=1;endArrow=block;endFill=1;fillColor=#f0a30a;strokeColor=#BD7000;strokeWidth=2;fontSize=13;align=right;fontStyle=0" parent="1" edge="1">
          <mxGeometry relative="1" as="geometry">
            <mxPoint x="955" y="245" as="sourcePoint" />
            <mxPoint x="1011" y="245" as="targetPoint" />
          </mxGeometry>
        </mxCell>
        <mxCell id="rwCCn9dW8YjWosBi0mnJ-8" value="Status: Bloqued" style="text;html=1;align=right;verticalAlign=middle;whiteSpace=wrap;rounded=0;fontSize=13;fontStyle=0" parent="1" vertex="1">
          <mxGeometry x="846" y="170" width="104" height="30" as="geometry" />
        </mxCell>
        <mxCell id="rwCCn9dW8YjWosBi0mnJ-9" value="Status: Success" style="text;html=1;align=right;verticalAlign=middle;whiteSpace=wrap;rounded=0;fontSize=13;fontStyle=0" parent="1" vertex="1">
          <mxGeometry x="831" y="200" width="119" height="30" as="geometry" />
        </mxCell>
        <mxCell id="rwCCn9dW8YjWosBi0mnJ-10" value="Status: Pending" style="text;html=1;align=right;verticalAlign=middle;whiteSpace=wrap;rounded=0;fontSize=13;fontStyle=0" parent="1" vertex="1">
          <mxGeometry x="830" y="230" width="119" height="30" as="geometry" />
        </mxCell>
        <mxCell id="rwCCn9dW8YjWosBi0mnJ-11" value="&lt;span style=&quot;font-size: 13px;&quot;&gt;Failed to validate Pix Key or QR Code&lt;/span&gt;" style="swimlane;whiteSpace=wrap;html=1;fillColor=#f5f5f5;fontColor=#333333;strokeColor=#666666;" parent="1" vertex="1">
          <mxGeometry x="430" y="115" width="310" height="525" as="geometry" />
        </mxCell>
        <mxCell id="rwCCn9dW8YjWosBi0mnJ-21" value="&lt;span style=&quot;color: rgb(0, 0, 0); font-family: Helvetica; font-size: 11px; font-style: normal; font-variant-ligatures: normal; font-variant-caps: normal; letter-spacing: normal; orphans: 2; text-align: center; text-indent: 0px; text-transform: none; widows: 2; word-spacing: 0px; -webkit-text-stroke-width: 0px; white-space: nowrap; background-color: rgb(251, 251, 251); text-decoration-thickness: initial; text-decoration-style: initial; text-decoration-color: initial; float: none; display: inline !important;&quot;&gt;No&lt;/span&gt;" style="text;whiteSpace=wrap;html=1;fontStyle=1" parent="rwCCn9dW8YjWosBi0mnJ-11" vertex="1">
          <mxGeometry x="100" y="412.5" width="50" height="40" as="geometry" />
        </mxCell>
        <mxCell id="caYTX9wSk72qGEzl7zCs-3" value="" style="edgeStyle=orthogonalEdgeStyle;rounded=0;orthogonalLoop=1;jettySize=auto;html=1;fillColor=#d5e8d4;strokeColor=#82b366;strokeWidth=2;endArrow=block;endFill=1;" edge="1" parent="rwCCn9dW8YjWosBi0mnJ-11" source="caYTX9wSk72qGEzl7zCs-1" target="caYTX9wSk72qGEzl7zCs-2">
          <mxGeometry relative="1" as="geometry" />
        </mxCell>
        <mxCell id="caYTX9wSk72qGEzl7zCs-1" value="Client" style="shape=actor;whiteSpace=wrap;html=1;verticalAlign=bottom;labelPosition=center;verticalLabelPosition=top;align=center;fillColor=#f5f5f5;fontColor=#333333;strokeColor=#666666;fontStyle=1" vertex="1" parent="rwCCn9dW8YjWosBi0mnJ-11">
          <mxGeometry x="155" y="82.5" width="40" height="60" as="geometry" />
        </mxCell>
        <mxCell id="caYTX9wSk72qGEzl7zCs-6" value="" style="edgeStyle=orthogonalEdgeStyle;rounded=0;orthogonalLoop=1;jettySize=auto;html=1;fillColor=#d5e8d4;strokeColor=#82b366;strokeWidth=2;endArrow=block;endFill=1;" edge="1" parent="rwCCn9dW8YjWosBi0mnJ-11" source="caYTX9wSk72qGEzl7zCs-2" target="caYTX9wSk72qGEzl7zCs-5">
          <mxGeometry relative="1" as="geometry" />
        </mxCell>
        <mxCell id="caYTX9wSk72qGEzl7zCs-2" value="API Gateway" style="rounded=0;whiteSpace=wrap;html=1;fontStyle=1" vertex="1" parent="rwCCn9dW8YjWosBi0mnJ-11">
          <mxGeometry x="120" y="182.5" width="110" height="50" as="geometry" />
        </mxCell>
        <mxCell id="caYTX9wSk72qGEzl7zCs-8" value="" style="edgeStyle=orthogonalEdgeStyle;rounded=0;orthogonalLoop=1;jettySize=auto;html=1;fillColor=#f0a30a;strokeColor=#BD7000;strokeWidth=2;endArrow=block;endFill=1;" edge="1" parent="rwCCn9dW8YjWosBi0mnJ-11" source="caYTX9wSk72qGEzl7zCs-5" target="caYTX9wSk72qGEzl7zCs-7">
          <mxGeometry relative="1" as="geometry" />
        </mxCell>
        <mxCell id="caYTX9wSk72qGEzl7zCs-10" style="edgeStyle=orthogonalEdgeStyle;rounded=0;orthogonalLoop=1;jettySize=auto;html=1;entryX=0;entryY=0.75;entryDx=0;entryDy=0;fillColor=#e51400;strokeColor=#B20000;dashed=1;endArrow=cross;endFill=0;strokeWidth=2;" edge="1" parent="rwCCn9dW8YjWosBi0mnJ-11" source="caYTX9wSk72qGEzl7zCs-5" target="caYTX9wSk72qGEzl7zCs-1">
          <mxGeometry relative="1" as="geometry">
            <Array as="points">
              <mxPoint x="60" y="322.5" />
              <mxPoint x="60" y="127.5" />
            </Array>
          </mxGeometry>
        </mxCell>
        <mxCell id="caYTX9wSk72qGEzl7zCs-5" value="Pix System" style="shape=cube;whiteSpace=wrap;html=1;boundedLbl=1;backgroundOutline=1;darkOpacity=0.05;darkOpacity2=0.1;fillColor=#dae8fc;strokeColor=#6c8ebf;fontStyle=1" vertex="1" parent="rwCCn9dW8YjWosBi0mnJ-11">
          <mxGeometry x="115" y="282.5" width="120" height="80" as="geometry" />
        </mxCell>
        <mxCell id="caYTX9wSk72qGEzl7zCs-7" value="Pix key is valid?" style="rhombus;whiteSpace=wrap;html=1;fillColor=#fff2cc;strokeColor=#d6b656;fontStyle=1" vertex="1" parent="rwCCn9dW8YjWosBi0mnJ-11">
          <mxGeometry x="135" y="402.5" width="80" height="80" as="geometry" />
        </mxCell>
        <mxCell id="caYTX9wSk72qGEzl7zCs-9" style="edgeStyle=orthogonalEdgeStyle;rounded=0;orthogonalLoop=1;jettySize=auto;html=1;entryX=0.008;entryY=0.65;entryDx=0;entryDy=0;entryPerimeter=0;fillColor=#e51400;strokeColor=#B20000;strokeWidth=2;endArrow=cross;endFill=0;" edge="1" parent="rwCCn9dW8YjWosBi0mnJ-11" source="caYTX9wSk72qGEzl7zCs-7" target="caYTX9wSk72qGEzl7zCs-5">
          <mxGeometry relative="1" as="geometry">
            <Array as="points">
              <mxPoint x="60" y="442.5" />
              <mxPoint x="60" y="334.5" />
            </Array>
          </mxGeometry>
        </mxCell>
      </root>
    </mxGraphModel>
  </diagram>
</mxfile>
